<?xml version="1.0" encoding="utf-8"?>
<!-- Generator: Adobe Illustrator 16.0.0, SVG Export Plug-In . SVG Version: 6.00 Build 0)  -->
<!DOCTYPE svg PUBLIC "-//W3C//DTD SVG 1.1//EN" "http://www.w3.org/Graphics/SVG/1.1/DTD/svg11.dtd">
<svg version="1.1" id="Layer_1" xmlns="http://www.w3.org/2000/svg" xmlns:xlink="http://www.w3.org/1999/xlink" x="0px" y="0px"
	 width="20.367px" height="20.37px" viewBox="0 0 20.367 20.37" enable-background="new 0 0 20.367 20.37" xml:space="preserve">
<path d="M16.431,0H3.933C1.763,0,0,1.764,0,3.936v4.161v8.335c0,2.172,1.763,3.938,3.933,3.938h12.498
	c2.17,0,3.937-1.766,3.937-3.938V8.097V3.936C20.367,1.764,18.601,0,16.431,0z M17.56,2.35l0.45-0.005v0.45v3.004l-3.441,0.012
	l-0.011-3.453L17.56,2.35z M7.273,8.097c0.655-0.906,1.713-1.498,2.908-1.498c1.199,0,2.256,0.592,2.906,1.498
	c0.426,0.589,0.679,1.311,0.679,2.09c0,1.972-1.608,3.583-3.585,3.583s-3.584-1.611-3.584-3.583
	C6.598,9.407,6.852,8.686,7.273,8.097z M18.384,16.432c0,1.078-0.875,1.951-1.953,1.951H3.933c-1.076,0-1.951-0.873-1.951-1.951
	V8.097h3.041c-0.264,0.646-0.411,1.347-0.411,2.09c0,3.072,2.5,5.57,5.57,5.57c3.072,0,5.57-2.498,5.57-5.57
	c0-0.743-0.148-1.444-0.411-2.09h3.043V16.432z"/>
</svg>
