<?xml version="1.0" encoding="utf-8"?>
<!-- Generator: Adobe Illustrator 16.0.0, SVG Export Plug-In . SVG Version: 6.00 Build 0)  -->
<!DOCTYPE svg PUBLIC "-//W3C//DTD SVG 1.1//EN" "http://www.w3.org/Graphics/SVG/1.1/DTD/svg11.dtd">
<svg version="1.1" id="Layer_1" xmlns="http://www.w3.org/2000/svg" xmlns:xlink="http://www.w3.org/1999/xlink" x="0px" y="0px"
	 width="96.597px" height="38.106px" viewBox="0 0 96.597 38.106" enable-background="new 0 0 96.597 38.106" xml:space="preserve">
<g>
	<g>
		<g>
			<g>
				<g>
					<path fill="#262626" d="M64.387,28.084c-3.24,5.666-9.303,9.186-15.818,9.186c-6.365,0-12.355-3.396-15.628-8.865l-0.724,0.434
						c3.427,5.714,9.691,9.268,16.352,9.268c6.819,0,13.16-3.68,16.547-9.602L64.387,28.084z"/>
				</g>
				<g>
					<path fill="#262626" d="M33.157,9.346c3.358-5.329,9.124-8.509,15.411-8.509c6.416,0,12.429,3.438,15.695,8.971l0.723-0.43
						C61.569,3.596,55.279,0,48.568,0c-6.58,0-12.605,3.327-16.123,8.896L33.157,9.346z"/>
				</g>
			</g>
		</g>
		<g>
			<path fill="#262626" d="M1.051,29.848c-0.262,0.137-0.546,0.385-0.612,0.68c-0.081,0.531,0.034,1.025-0.378,1.406
				c-0.017,0.1-0.116,0.215-0.017,0.313c0.365,0.118,0.712,0.265,1.157,0.314c0.2-0.646,0.346-1.356,0.577-1.919v-0.164
				C1.58,30.233,1.384,29.917,1.051,29.848z"/>
			<path fill="#262626" d="M46.689,27.965c-0.99-0.576-1.388-1.668-2-2.529c-0.214-0.314-0.596-0.513-0.795-0.826
				c-0.71-1.933-1.319-3.871-1.504-6.083c-0.146-0.547-0.263-1.111-0.559-1.625c-0.894-1.455-2.051-2.778-3.178-4.119
				c-0.097-0.096-0.262-0.178-0.314-0.312l-3.917-3.258C33.94,8.85,33.395,8.615,32.85,8.369c-0.826-0.311-1.949-0.245-2.76,0.102
				c-0.845,0.446-1.605,1.088-2.498,1.39c-1.29,0.579-2.745,0.695-3.851,1.685c-0.647,0.561-1.192,1.44-2.152,1.292
				c-1.076-0.053-2.032,0.345-2.844,1.007c-0.728,0.664-1.423,1.44-2.366,1.62c-0.824,0.346-1.834,0.185-2.677,0.498
				c-1.341,0.331-2.396,1.389-3.539,2.198c-1.142,0.663-2.233,1.374-3.652,1.34c-0.928-0.065-1.82-0.714-2.119-1.607
				c-0.279-1.022,0.035-2.083,0.844-2.775c0.845-1.008,2.18-1.604,2.845-2.761c0.345-0.613,0.296-1.606-0.166-2.182
				C7.037,9.262,5.781,9.229,4.641,8.948C3.911,8.751,3.349,8.191,2.704,7.841C2.458,8.223,2.375,8.633,2.408,9.098
				c0.132,1.043,0.925,1.986,1.919,2.348c0.578,0.249,1.237,0.066,1.835,0.201c0.165,0.063,0.328,0.229,0.349,0.411
				c-0.036,0.164-0.052,0.332-0.198,0.447c-0.927,0.775-1.905,1.521-2.684,2.482c-0.825,0.892-0.925,2.461-0.491,3.586
				c0.477,1.291,1.818,2.134,3.106,2.3c0.942,0.146,1.787-0.1,2.644-0.281c0.119,0,0.168,0.115,0.217,0.182
				c0.086,0.761-0.034,1.437,0.135,2.132c0.147,0.646,0.364,1.092,0.593,1.725c0.032,0.211,0,0.442-0.148,0.607
				C9.206,25.6,8.71,25.847,8.18,26.081l-1.29,0.081l-0.248,0.116c-0.479,0.562-0.496,1.143-0.795,1.771
				c-0.397,0.66-1.124,0.976-1.734,1.355c-0.201,0.314-0.416,0.646-0.695,0.894c-0.214,0.196-0.479,0.25-0.762,0.278
				c-0.447,0.516-0.545,1.223-0.659,1.922c0.727,0.063,1.488,0.461,2.198,0.063c0.612-0.281,0.744-1.024,1.206-1.47
				c0.363-0.399,0.912-0.101,1.34-0.02c0.645,0.032,1.107-0.43,1.654-0.644c0.379-0.247,0.693-0.677,1.091-0.923
				c0.76-0.367,1.82-0.172,2.612-0.018c0.629,0.166,1.293,0.064,1.836-0.184c0.512-0.314,0.993-0.712,1.572-0.842
				c0.513-0.268,0.761-0.842,0.974-1.323c0.166-0.448,0.595-0.794,0.563-1.308c-0.132-0.115-0.282-0.364-0.48-0.348
				c-0.247,0.348-0.427,0.712-0.71,1.039c-1.195,1.635-2.137,1.789-4.562,1.789c-1.805-0.066-3.424,0.479-4.665,1.885
				c-0.083,0.048-0.199,0.016-0.265-0.052c-0.048-0.196,0.114-0.524,0.199-0.675c1.107-1.57,2.827-1.934,4.646-1.967
				c0.992-0.066,1.935-0.233,2.776-0.659c0.945-0.482,1.59-1.228,1.986-2.152c0.215-1.044,0.299-2.168,0.562-3.159
				c0.033-0.1,0.282-0.174,0.365-0.141c0.095,0.02,0.296,0.105,0.296,0.222c-0.183,1.026-0.513,2.232-0.116,3.226
				c0.796,1.041,2.267,0.48,3.341,0.43c1.124-0.098,2.03-0.012,3.101,0.056c0.536-0.015,0.924,0.112,1.336-0.22
				c0.116-0.179,0.163-0.427,0.132-0.623c-0.037-0.301-0.284-0.478,0-0.727c0.081-0.067,0.326-0.023,0.393,0.061
				c0.146,0.412,0.215,0.856,0.48,1.225c0.529,0.676,1.305,1.206,2.032,1.585c0.696,0.479,1.276,1.159,1.324,2.003
				c0,0.429-0.398,0.723-0.729,0.924c-0.562,0.279-1.175,0.514-1.838,0.447c-0.873-0.432-1.105-1.354-1.686-2.035
				c-0.295-0.334-0.742-0.398-1.188-0.365c-0.478,0.053-0.959,0.068-1.389,0.217c-0.117,0.098-0.147,0.246-0.132,0.396
				c0.297,0.546,0.629,1.077,0.958,1.62c0.381,0.234,0.91-0.131,1.24,0.283c0.281,0.433,0.463,0.943,0.889,1.273
				c0.418,0.364,1.047,0.527,1.59,0.297c1.223-0.381,2.451-0.777,3.591-1.388H30.9c0.461-0.053,0.975-0.015,1.307-0.364
				c0.363-0.529,0.66-1.023,0.938-1.588c0.285-0.381,0.15-0.957,0.037-1.373c-0.562-0.695-0.877-1.473-1.176-2.266
				c-0.28-0.078-0.528-0.249-0.844-0.23c-0.148,0.064-0.362,0.031-0.447,0.196l1.308,2.583c0.083,0.195,0.184,0.478,0.132,0.744
				c-0.181,0.544-0.462,1.07-0.908,1.469c-0.084,0.049-0.183,0.1-0.249-0.015c0.151-0.562,0.414-1.175,0.383-1.823l-1.274-2.297
				c-0.15-0.316-0.415-0.594-0.397-0.955c0-0.166,0.149-0.284,0.281-0.35c0.562-0.183,1.24-0.149,1.669-0.596
				c0.562-0.876,0.68-1.736,0.83-2.776c0.035-0.066,0.165-0.196,0.264-0.196c0.101-0.031,0.216,0.111,0.264,0.161
				c0.166,1.144-0.065,2.302-0.728,3.194c-0.034,0.115-0.082,0.263,0.05,0.345c0.63,0.2,1.287,0,1.816-0.281
				c0.68,0.015,1.308-0.147,1.921-0.245c0.065,0.031,0.132,0.098,0.132,0.162c-0.414,0.465-0.646,0.975-0.762,1.572
				c-0.496,0.512-1.207,0.957-1.257,1.702c0.083,0.366,0.396,0.019,0.611,0.05c0.099,0.019,0.166,0.101,0.166,0.199l-0.494,0.729
				c-0.269,0.428,0.048,0.926,0.048,1.338c0.116,0.332,0.512,0.494,0.859,0.494c0.744-0.033,1.404-0.312,2.068-0.547
				c0.726-0.31,1.639-0.295,2.43-0.16c0.776-0.052,1.358-0.564,1.934-1.076c0.316,0,0.597,0.215,0.812,0.446
				c0.896,0.962,2.05,1.372,3.356,1.337l0.117-0.062c0.081-0.084,0.049-0.234-0.05-0.301l-0.778-0.396
				c-0.546-0.348-1.226-0.81-1.404-1.421c-0.168-0.549-0.465-1.14-0.793-1.67c-0.12-0.266-0.385-0.479-0.496-0.744
				c0.031-0.035,0.063-0.084,0.111-0.066c0.86,0.296,1.375,1.142,1.772,1.9c0.626,0.879,1.539,1.619,2.729,1.423l0.1-0.081
				c0.049-0.066,0.032-0.15,0-0.201L46.689,27.965z M33.609,16.292c-0.031,0.031-0.082,0.047-0.132,0.015
				c-0.132-0.678-0.283-1.371-0.546-2.015c-0.152-0.381-0.646-0.695-0.417-1.145c0.104-0.097,0.283-0.116,0.417-0.064
				c0.263,0.183,0.43,0.463,0.578,0.727C33.822,14.54,33.822,15.511,33.609,16.292z M39.974,27.168
				c-0.313,0.102-0.663,0.135-1.009,0.117c-0.083-0.029-0.198-0.083-0.162-0.18c0.148-0.447,0.579-0.893,1.056-0.99
				c0.131,0,0.314-0.019,0.348,0.162C40.236,26.592,40.236,26.973,39.974,27.168z M41.978,22.706
				c-0.087,0.168-0.068,0.416-0.284,0.461c-0.097,0.035-0.181-0.029-0.181-0.131c-0.033-0.443-0.033-0.908-0.3-1.27
				c-0.296-0.316-0.609-0.861-1.086-0.861c-0.334,0.1-0.579,0.48-0.781,0.742c-0.019,0.033-0.065,0.033-0.099,0.02
				c-0.182-0.465,0.184-0.862,0.332-1.257c0.279-0.283,0.214-1.109,0.842-0.845c0.43,0.23,0.513,0.696,0.829,1.008
				C41.794,21.186,42.156,21.864,41.978,22.706z"/>
			<path fill="#262626" d="M26.139,28.098c0.328,0.365,0.312,0.927,0.692,1.207c0.495,0.082,0.942-0.117,1.32-0.413
				c0.22-0.183-0.097-0.415-0.129-0.63c-0.216-0.314-0.068-0.941-0.596-0.959c-0.527,0.086-1.06,0.1-1.588,0.1L25.689,27.5
				C25.591,27.817,26.054,27.817,26.139,28.098z"/>
			<path fill="#262626" d="M2.789,29.801c0.513-0.295,0.84-0.861,1.106-1.338c-0.048-0.184-0.232-0.316-0.38-0.447
				C3.417,27.934,3.269,28,3.151,28.031c-0.362,0.315-0.743,0.562-1.141,0.811c-0.165,0.116-0.097,0.364-0.13,0.546
				c0,0.166,0.195,0.283,0.296,0.379C2.358,29.848,2.592,29.868,2.789,29.801z"/>
			<path fill="#262626" d="M96.312,31.553c-0.078-0.378,0.017-0.91-0.229-1.255c-0.215-0.165-0.413-0.417-0.696-0.349
				c-0.231,0.196-0.579,0.43-0.528,0.777c0.197,0.594,0.328,1.026,0.447,1.639c0.065,0.111,0,0.344,0.18,0.344l1.061-0.344
				C96.726,32.064,96.38,31.836,96.312,31.553z"/>
			<path fill="#262626" d="M93.635,28.115c-0.333-0.282-0.68,0.132-0.842,0.381c0.112,0.396,0.444,0.726,0.693,1.089
				c0.133,0.201,0.348,0.332,0.579,0.35c0.23,0,0.415-0.115,0.576-0.248c0.116-0.148,0.247-0.334,0.199-0.547
				C94.524,28.709,94.03,28.447,93.635,28.115z"/>
			<path fill="#262626" d="M92.311,29.305c-0.414-0.479-1.223-0.761-1.205-1.473c-0.148-0.281-0.183-0.727-0.314-1.095
				c-0.118-0.296-0.232-0.724-0.629-0.79c-0.712-0.115-1.573,0.084-2.02-0.578c-0.461-0.496,0.049-1.076,0.134-1.553
				c0.199-0.614,0.214-1.424,0.117-2.051c-0.02-0.365-0.268-0.661-0.202-1.027c0.169-0.311,0.567-0.081,0.814-0.048
				c0.924,0.263,2.016,0.131,2.862-0.231c1.155-0.563,2.079-1.738,2.032-3.075c-0.164-1.736-1.406-3.159-2.745-4.284
				c-0.249-0.215-0.562-0.448-0.647-0.763c-0.029-0.675,0.73-0.346,1.108-0.51c0.463-0.117,0.929-0.233,1.308-0.495
				c1.01-0.679,1.224-1.873,1.023-3.03c-0.032-0.098-0.032-0.243-0.181-0.243c-0.181,0.146-0.365,0.362-0.597,0.494
				c-0.643,0.382-1.501,0.317-2.181,0.645c-0.843,0.362-1.887,0.878-2.247,1.836c-0.104,0.478,0.017,0.974,0.23,1.371
				c1.023,1.621,3.189,2.679,3.535,4.63c0.133,0.793-0.263,1.373-0.874,1.819c-0.927,0.564-2.315,0.364-3.24-0.133
				c-1.786-0.893-3.342-2.382-5.256-2.994c-1.21-0.545-2.7-0.411-3.774-1.254c-0.808-0.53-1.553-1.223-2.463-1.458
				c-0.628-0.214-1.339-0.179-1.917-0.495c-0.596-0.53-1.224-1.021-1.919-1.373c-0.958-0.481-2.015-0.73-3.073-0.962
				C69.362,10.041,69.13,9.347,68.617,9c-0.874-0.698-1.853-1.193-3.042-1.093c-0.497,0.035-0.879,0.364-1.257,0.694
				c-2.531,2.216-5.425,3.736-7.738,6.268c-1.555,1.602-1.97,3.64-2.547,5.606c-0.829,2.979-1.174,6.252-4.167,8.084
				c-0.049,0.088-0.049,0.232,0.05,0.298c0.794,0.201,1.568-0.116,2.1-0.661c0.514-0.807,1.058-1.585,1.753-2.328l0.165-0.082
				c0.081,0.014,0.183,0.062,0.147,0.18c-0.196,0.661-0.792,1.141-0.992,1.803c-0.264,0.791-1.023,1.406-1.67,1.967l-0.014,0.098
				c0,0.084,0.079,0.168,0.164,0.185c1.454,0.064,2.497-0.978,3.472-1.954c0.1-0.098,0.23-0.078,0.362-0.047
				c0.432,0.33,0.828,0.825,1.391,0.941c0.596-0.082,1.223-0.166,1.851-0.116c0.875,0.263,1.719,0.628,2.598,0.925
				c0.446-0.014,0.776-0.443,1.005-0.809c0.185-0.431-0.08-0.859-0.046-1.273c0.216-0.133,0.463,0.035,0.694-0.031
				c0.099-0.066,0.183-0.18,0.183-0.301c-0.169-0.76-0.846-1.32-1.06-2.031c-0.33-0.914-1.405-1.46-1.604-2.43
				c0.051-0.068,0.133-0.17,0.216-0.1c0.712,0.509,1.34,1.189,2.215,1.316c0.661,0.073,1.342,0.138,2.002,0.09
				c0.099-0.036,0.182-0.151,0.151-0.266c-0.283-0.598-0.55-1.189-0.716-1.837c-0.231-0.812-0.395-1.934-0.132-2.828
				c0.05-0.066,0.265-0.192,0.363-0.158c0.134,0.03,0.3,0.191,0.315,0.308c0.101,1.404-0.049,2.696,0.795,3.801
				c0.363,0.578,0.992,0.695,1.439,1.143c0.164,0.229,0.199,0.609,0.082,0.875l-1.01,1.49c-0.231,0.33-0.461,0.693-0.543,1.059
				c-0.085,0.41-0.035,0.808,0,1.205c-0.07,0.034-0.103-0.066-0.168-0.099c-0.265-0.546-0.562-1.239-0.281-1.884l1.276-1.967
				l0.046-0.15c-0.279-0.15-0.593-0.301-0.891-0.365c-0.15,0.064-0.25,0.215-0.349,0.348l-1.241,2.248
				c-0.082,0.268-0.163,0.465-0.098,0.741c0.062,0.333,0.149,0.664,0.299,0.948c0.096,0.461,0.176,0.773,0.396,1.189
				c0.312,0.346,0.743,0.029,1.142,0.133c0.396,0.1,0.545,0.576,0.942,0.691c0.894,0.297,1.852,0.463,2.742,0.812
				c0.466,0.149,1.127,0.33,1.54-0.053c0.579-0.312,0.729-0.922,0.827-1.503c0.183-0.249,0.547-0.147,0.808-0.233
				c0.497-0.33,0.666-0.924,1.028-1.371l0.065-0.23c-0.049-0.148-0.181-0.23-0.312-0.281h-1.687
				c-0.776,0.098-0.846,0.959-1.176,1.489c-0.181,0.331-0.544,0.462-0.924,0.427c-0.795-0.211-1.768-0.328-2.134-1.188
				c-0.054-0.217-0.054-0.481,0.115-0.631c0.411-0.477,0.909-1.023,1.424-1.422c0.726-0.149,1.438-0.693,1.815-1.338
				c0.199-0.285,0.167-0.693,0.495-0.909c0.101-0.015,0.322-0.026,0.39,0.075c0.146,0.48-0.119,0.822-0.271,1.233
				c1.805,0.185,3.197-0.337,4.954-0.269c0.746,0,1.412,0.083,2.141,0.034c0.726-0.032,1.519-0.329,1.752-1.089
				c0.332-0.979-0.132-2.084-0.297-3.01l0.2-0.158c0.115-0.067,0.311,0.025,0.394,0.09c0.314,0.878,0.528,1.933,0.661,2.896
				c0.134,0.844,0.495,1.387,0.958,2.103c0.845,1.251,2.331,1.749,3.806,1.437c1.784-0.135,3.322,0.808,4.415,2.197v0.083
				c-0.035,0.064-0.101,0.146-0.185,0.129c-0.94-0.726-1.884-1.499-3.091-1.65c-1.221-0.222-2.315,0.415-3.587-0.099
				c-1.535-0.508-2.181-1.449-2.83-2.961h-0.132c-0.099,0.018-0.164,0.116-0.183,0.213l0.167,1.025
				c0.199,0.826,0.46,1.803,1.354,2.183c0.695,0.415,1.374,1.011,2.231,0.78c1.506-0.332,3.027,0.098,4.186,0.939
				c0.382,0.217,0.679,0.611,1.091,0.764c0.446,0.181,0.99,0.08,1.357-0.219c0.841-0.279,1.039,0.781,1.619,1.159
				c0.511,0.496,1.402,0.298,2.086,0.298l0.113-0.08c-0.082-0.682-0.263-1.211-0.528-1.806
				C93.223,30.746,92.807,29.833,92.311,29.305z M58.777,27.5c-0.196,0.152-0.547,0.066-0.794,0.035
				c-0.298-0.166-0.364-0.513-0.395-0.844c0-0.081,0.017-0.168,0.097-0.234c0.349,0,0.695,0.088,0.927,0.365
				C58.711,27.04,58.894,27.27,58.777,27.5z M59.108,21.95c-0.066,0.079-0.165,0.197-0.282,0.112
				c-0.332-0.112-0.278-0.628-0.695-0.598c-0.312-0.015-0.493,0.251-0.741,0.383c-0.43,0.38-1.008,0.776-1.107,1.355
				c-0.085,0.216-0.051,0.511-0.232,0.63c-0.117,0.028-0.247-0.066-0.247-0.166c-0.067-0.762,0.181-1.487,0.744-2
				c0.545-0.447,0.925-1.061,1.371-1.573c0.248-0.049,0.428,0.135,0.528,0.316c0.297,0.378,0.514,0.792,0.692,1.237
				C59.174,21.748,59.139,21.847,59.108,21.95z M65.756,12.639c-0.678,0.641-1.506,1.304-2.001,2.083
				c-0.185,0.245-0.312,0.526-0.446,0.808c-0.019,0.034-0.064,0.049-0.117,0.034c-0.132-0.398,0.034-0.811,0.132-1.192
				c0.349-0.928,1.125-1.787,1.919-2.382c0.183-0.116,0.532-0.148,0.631,0.101C66.005,12.305,65.852,12.472,65.756,12.639z"/>
			<path fill="#262626" d="M70.138,27.6c-0.445,0.084-0.957-0.014-1.404,0.053c-0.197,0.295-0.379,0.66-0.332,1.057
				c0.051,0.413,0.513,0.445,0.811,0.562c0.283,0.033,0.694,0.133,0.843-0.168c0.168-0.426,0.315-0.892,0.384-1.354
				C70.402,27.622,70.271,27.567,70.138,27.6z"/>
		</g>
	</g>
</g>
</svg>
