<?xml version="1.0" encoding="utf-8"?>
<!-- Generator: Adobe Illustrator 16.0.0, SVG Export Plug-In . SVG Version: 6.00 Build 0)  -->
<!DOCTYPE svg PUBLIC "-//W3C//DTD SVG 1.1//EN" "http://www.w3.org/Graphics/SVG/1.1/DTD/svg11.dtd">
<svg version="1.1" id="Layer_1" xmlns="http://www.w3.org/2000/svg" xmlns:xlink="http://www.w3.org/1999/xlink" x="0px" y="0px"
	 width="107px" height="83.002px" viewBox="5.5 -2.679 107 83.002" enable-background="new 5.5 -2.679 107 83.002"
	 xml:space="preserve">
<g>
	<g>
		<g>
			<path d="M8.865,54.147h-1.26v4.008H5.875V48.007h3.893c1.961,0,3.178,1.36,3.178,3.078c0,1.445-0.873,2.547-2.29,2.891
				l2.29,4.183H11L8.865,54.147z M9.452,52.63c1.059,0,1.746-0.615,1.746-1.545c0-0.945-0.688-1.561-1.746-1.561H7.606v3.104
				L9.452,52.63L9.452,52.63z"/>
			<path d="M20.706,56.165c-0.372,1.217-1.475,2.205-3.148,2.205c-1.89,0-3.564-1.375-3.564-3.736c0-2.203,1.632-3.664,3.393-3.664
				c2.146,0,3.406,1.418,3.406,3.621c0,0.271-0.028,0.501-0.043,0.529h-5.096c0.043,1.061,0.873,1.818,1.904,1.818
				c1.002,0,1.517-0.529,1.746-1.217L20.706,56.165z M19.116,53.903c-0.028-0.814-0.572-1.545-1.718-1.545
				c-1.044,0-1.646,0.802-1.703,1.545H19.116z"/>
			<path d="M28.966,56.881c0,0.63,0.057,1.159,0.071,1.274h-1.589c-0.028-0.158-0.071-0.615-0.071-0.902
				c-0.329,0.587-1.06,1.074-2.047,1.074c-2.004,0-3.35-1.574-3.35-3.68c0-2.004,1.36-3.648,3.321-3.648
				c1.216,0,1.832,0.559,2.046,1.002v-4.209h1.618L28.966,56.881L28.966,56.881z M25.517,56.867c1.088,0,1.847-0.902,1.847-2.233
				s-0.744-2.16-1.832-2.16c-1.088,0-1.89,0.844-1.89,2.176C23.642,55.979,24.386,56.867,25.517,56.867z"/>
			<path d="M38.616,48.007c1.946,0,3.092,1.146,3.092,2.734c0,1.072-0.63,1.875-1.503,2.189c1.073,0.283,1.817,1.217,1.817,2.418
				c0,1.633-1.26,2.807-3.148,2.807h-3.75V48.007H38.616z M38.387,52.301c1.002,0,1.604-0.571,1.604-1.417
				c0-0.857-0.602-1.416-1.646-1.416h-1.517v2.833H38.387z M38.573,56.694c1.03,0,1.703-0.561,1.703-1.459
				c0-0.873-0.587-1.488-1.646-1.488h-1.804v2.947H38.573z"/>
			<path d="M46.191,58.354c-1.66,0-2.634-1.23-2.634-2.775v-4.395h1.66v4.094c0,0.855,0.4,1.589,1.402,1.589
				c0.959,0,1.46-0.646,1.46-1.562v-4.121h1.66v5.693c0,0.573,0.043,1.02,0.072,1.271h-1.589c-0.028-0.155-0.058-0.483-0.058-0.771
				C47.822,58.011,47.006,58.354,46.191,58.354z"/>
			<path d="M52.032,58.155V47.792h1.661v10.363H52.032z"/>
			<path d="M55.984,58.155V47.792h1.66v10.363H55.984z"/>
			<path d="M68.898,50.87c-0.102-0.63-0.629-1.561-1.988-1.561c-1.031,0-1.746,0.688-1.746,1.459c0,0.646,0.4,1.131,1.189,1.304
				l1.461,0.3c1.789,0.357,2.748,1.488,2.748,2.92c0,1.575-1.275,3.078-3.596,3.078c-2.574,0-3.766-1.66-3.922-3.121l1.605-0.457
				c0.1,1.059,0.855,2.032,2.316,2.032c1.219,0,1.85-0.616,1.85-1.403c0-0.658-0.488-1.188-1.361-1.373l-1.43-0.301
				c-1.547-0.314-2.576-1.332-2.576-2.85c0-1.703,1.559-3.105,3.449-3.105c2.389,0,3.316,1.461,3.549,2.592L68.898,50.87z"/>
			<path d="M74.424,51.185h1.445v1.477h-1.445v3.232c0,0.614,0.271,0.873,0.889,0.873c0.229,0,0.502-0.043,0.572-0.058v1.373
				c-0.102,0.043-0.416,0.158-1.018,0.158c-1.287,0-2.09-0.773-2.09-2.076v-3.506H71.49v-1.476h0.355
				c0.744,0,1.072-0.475,1.072-1.09V49.05h1.504L74.424,51.185L74.424,51.185z"/>
			<path d="M80.297,58.354c-1.66,0-2.635-1.23-2.635-2.775v-4.395h1.66v4.094c0,0.855,0.398,1.589,1.402,1.589
				c0.959,0,1.459-0.646,1.459-1.562v-4.121h1.658v5.693c0,0.573,0.043,1.02,0.072,1.271h-1.59
				c-0.027-0.155-0.059-0.483-0.059-0.771C81.926,58.011,81.111,58.354,80.297,58.354z"/>
			<path d="M92.535,56.881c0,0.63,0.057,1.159,0.07,1.274h-1.588c-0.029-0.158-0.072-0.615-0.072-0.902
				c-0.328,0.587-1.061,1.074-2.047,1.074c-2.004,0-3.352-1.574-3.352-3.68c0-2.004,1.359-3.648,3.322-3.648
				c1.215,0,1.83,0.559,2.045,1.002v-4.209h1.617L92.535,56.881L92.535,56.881z M89.086,56.867c1.088,0,1.846-0.902,1.846-2.233
				s-0.742-2.16-1.83-2.16c-1.09,0-1.891,0.844-1.891,2.176C87.211,55.979,87.955,56.867,89.086,56.867z"/>
			<path d="M95.672,47.649c0.602,0,1.088,0.483,1.088,1.088c0,0.602-0.486,1.072-1.088,1.072c-0.588,0-1.072-0.474-1.072-1.072
				C94.6,48.136,95.086,47.649,95.672,47.649z M94.857,58.155v-6.971h1.646v6.971H94.857z"/>
			<path d="M105.479,54.663c0,2.146-1.531,3.707-3.621,3.707c-2.074,0-3.605-1.561-3.605-3.707c0-2.133,1.531-3.693,3.605-3.693
				C103.945,50.969,105.479,52.53,105.479,54.663z M103.803,54.663c0-1.446-0.916-2.189-1.945-2.189
				c-1.018,0-1.947,0.743-1.947,2.189c0,1.445,0.932,2.218,1.947,2.218C102.887,56.881,103.803,56.122,103.803,54.663z"/>
			<path d="M108.055,55.865c0.061,0.63,0.531,1.188,1.42,1.188c0.688,0,1.045-0.372,1.045-0.802c0-0.371-0.26-0.658-0.814-0.771
				l-1.031-0.229c-1.229-0.271-1.875-1.073-1.875-2.032c0-1.216,1.117-2.245,2.562-2.245c1.943,0,2.576,1.26,2.688,1.945l-1.4,0.398
				c-0.059-0.398-0.355-1.045-1.287-1.045c-0.588,0-1.002,0.373-1.002,0.804c0,0.372,0.271,0.644,0.701,0.729l1.059,0.215
				c1.316,0.287,2.006,1.088,2.006,2.119c0,1.06-0.857,2.23-2.635,2.23c-2.021,0-2.791-1.317-2.877-2.104L108.055,55.865z"/>
			<path d="M34.521,80.108l-5.009-7.688v7.688h-1.718V69.961h2.189l4.608,7.199v-7.199h1.718v10.147H34.521z"/>
			<path d="M44.888,78.119c-0.372,1.216-1.475,2.204-3.148,2.204c-1.89,0-3.564-1.374-3.564-3.736c0-2.203,1.632-3.664,3.393-3.664
				c2.146,0,3.406,1.418,3.406,3.621c0,0.271-0.028,0.502-0.043,0.53h-5.096c0.043,1.06,0.873,1.817,1.904,1.817
				c1.002,0,1.517-0.529,1.746-1.22L44.888,78.119z M43.299,75.856c-0.028-0.814-0.572-1.545-1.718-1.545
				c-1.044,0-1.646,0.802-1.703,1.545H43.299z"/>
			<path d="M52.275,73.138l1.646,4.823l1.389-4.823H57l-2.232,6.971h-1.661l-1.731-5.01l-1.689,5.01h-1.705l-2.261-6.971h1.774
				l1.417,4.823l1.646-4.823H52.275z"/>
			<path d="M61.17,69.961h2.031l2.434,4.251l2.447-4.251h1.932l-3.576,5.854v4.293h-1.719v-4.293L61.17,69.961z"/>
			<path d="M76.701,76.616c0,2.146-1.531,3.707-3.619,3.707c-2.076,0-3.607-1.561-3.607-3.707c0-2.133,1.531-3.693,3.607-3.693
				C75.17,72.923,76.701,74.483,76.701,76.616z M75.027,76.616c0-1.445-0.916-2.189-1.945-2.189c-1.018,0-1.947,0.744-1.947,2.189
				s0.932,2.219,1.947,2.219C74.111,78.835,75.027,78.076,75.027,76.616z"/>
			<path d="M82.529,74.784c-0.188-0.029-0.371-0.043-0.543-0.043c-1.289,0-1.875,0.744-1.875,2.047v3.32h-1.66v-6.974h1.617v1.117
				c0.328-0.759,1.104-1.203,2.02-1.203c0.199,0,0.371,0.029,0.441,0.043V74.784z"/>
			<path d="M87.727,76.087l2.92,4.021h-2.031l-2.047-2.851l-0.857,0.901v1.943h-1.645V69.745h1.645v6.212l2.676-2.819h2.203
				L87.727,76.087z"/>
		</g>
	</g>
	<g>
		<path d="M7.058,29.819c-0.286,0.15-0.595,0.418-0.664,0.739c-0.09,0.579,0.033,1.117-0.415,1.536
			c-0.019,0.105-0.124,0.23-0.019,0.337c0.399,0.129,0.775,0.29,1.261,0.343c0.216-0.703,0.377-1.475,0.629-2.087v-0.18
			C7.633,30.237,7.42,29.894,7.058,29.819z"/>
		<path d="M34.372,27.914c0.36,0.396,0.34,1.01,0.757,1.313c0.54,0.092,1.022-0.124,1.435-0.447
			c0.238-0.198-0.104-0.452-0.141-0.688c-0.233-0.342-0.074-1.023-0.648-1.043c-0.574,0.092-1.151,0.108-1.728,0.108l-0.161,0.11
			C33.774,27.609,34.282,27.609,34.372,27.914z"/>
		<path d="M8.949,29.769c0.559-0.324,0.917-0.938,1.203-1.459c-0.052-0.197-0.252-0.341-0.413-0.485
			c-0.106-0.089-0.27-0.017-0.396,0.016c-0.394,0.345-0.81,0.614-1.241,0.885c-0.181,0.125-0.107,0.394-0.142,0.593
			c0,0.182,0.212,0.304,0.325,0.413C8.482,29.819,8.733,29.841,8.949,29.769z"/>
		<path d="M110.777,31.676c-0.084-0.41,0.018-0.989-0.248-1.366c-0.234-0.179-0.453-0.454-0.758-0.38
			c-0.258,0.215-0.633,0.469-0.578,0.846c0.217,0.649,0.357,1.118,0.486,1.785c0.072,0.124,0,0.376,0.195,0.376l1.152-0.376
			C111.229,32.235,110.852,31.984,110.777,31.676z"/>
		<path d="M107.861,27.932c-0.359-0.307-0.736,0.144-0.914,0.413c0.121,0.438,0.48,0.792,0.754,1.189
			c0.145,0.218,0.379,0.36,0.633,0.38c0.25,0,0.449-0.128,0.627-0.273c0.125-0.161,0.27-0.36,0.215-0.594
			C108.832,28.582,108.293,28.292,107.861,27.932z"/>
		<path d="M106.422,29.227c-0.451-0.519-1.33-0.824-1.312-1.602c-0.16-0.305-0.197-0.79-0.34-1.191
			c-0.131-0.321-0.256-0.788-0.688-0.86c-0.773-0.124-1.711,0.091-2.197-0.63c-0.502-0.54,0.055-1.171,0.145-1.691
			c0.221-0.667,0.232-1.55,0.129-2.235c-0.021-0.395-0.291-0.717-0.219-1.117c0.182-0.339,0.615-0.089,0.885-0.052
			c1.01,0.287,2.193,0.143,3.115-0.25c1.26-0.615,2.268-1.892,2.211-3.348c-0.178-1.891-1.525-3.439-2.984-4.666
			c-0.271-0.233-0.613-0.487-0.705-0.83c-0.033-0.735,0.793-0.377,1.207-0.556c0.502-0.125,1.01-0.253,1.422-0.539
			c1.104-0.738,1.334-2.037,1.117-3.298c-0.037-0.107-0.037-0.266-0.197-0.266c-0.195,0.159-0.396,0.395-0.646,0.538
			c-0.701,0.414-1.635,0.343-2.377,0.702c-0.918,0.394-2.057,0.958-2.447,2c-0.109,0.521,0.021,1.059,0.254,1.493
			c1.115,1.766,3.471,2.918,3.85,5.042c0.145,0.864-0.285,1.496-0.951,1.98c-1.008,0.613-2.521,0.395-3.527-0.144
			c-1.943-0.973-3.639-2.592-5.723-3.258c-1.318-0.595-2.938-0.448-4.111-1.369c-0.879-0.577-1.688-1.333-2.682-1.585
			c-0.682-0.232-1.457-0.195-2.088-0.541c-0.646-0.575-1.33-1.109-2.088-1.493c-1.043-0.523-2.193-0.795-3.35-1.047
			c-0.684-0.155-0.936-0.914-1.494-1.292c-0.957-0.761-2.02-1.299-3.318-1.191c-0.486,0.034-0.869,0.33-1.244,0.65
			c-3.826-5.734-10.34-9.26-17.271-9.26c-6.928,0-13.284,3.396-17.159,9.101c-0.897-0.321-2.092-0.251-2.962,0.122
			c-0.918,0.485-1.746,1.184-2.716,1.513c-1.407,0.629-2.989,0.757-4.196,1.836c-0.702,0.607-1.299,1.566-2.341,1.405
			c-1.171-0.057-2.214,0.374-3.098,1.096c-0.79,0.725-1.549,1.568-2.573,1.764c-0.9,0.378-2,0.2-2.917,0.542
			c-1.458,0.359-2.608,1.511-3.853,2.393c-1.244,0.723-2.434,1.496-3.977,1.459c-1.01-0.07-1.981-0.777-2.308-1.749
			c-0.304-1.114,0.036-2.266,0.92-3.021c0.917-1.1,2.374-1.748,3.096-3.006c0.375-0.667,0.325-1.748-0.18-2.378
			c-0.956-0.994-2.324-1.029-3.566-1.333C10.173,6.851,9.559,6.24,8.859,5.857C8.588,6.275,8.498,6.723,8.533,7.225
			c0.146,1.138,1.009,2.165,2.089,2.559c0.632,0.272,1.35,0.072,1.999,0.218c0.182,0.071,0.359,0.25,0.381,0.449
			c-0.041,0.179-0.056,0.359-0.218,0.485c-1.009,0.846-2.073,1.657-2.918,2.7c-0.903,0.972-1.008,2.684-0.537,3.908
			c0.519,1.403,1.979,2.321,3.38,2.502c1.027,0.159,1.949-0.107,2.883-0.306c0.128,0,0.181,0.124,0.232,0.199
			c0.095,0.829-0.036,1.565,0.146,2.321c0.162,0.704,0.396,1.188,0.648,1.875c0.034,0.231,0,0.485-0.162,0.664
			c-0.523,0.395-1.062,0.667-1.64,0.917l-1.405,0.088l-0.268,0.126c-0.523,0.615-0.541,1.246-0.866,1.932
			c-0.432,0.719-1.223,1.061-1.888,1.474c-0.218,0.342-0.455,0.703-0.758,0.973c-0.234,0.215-0.523,0.272-0.828,0.305
			c-0.487,0.562-0.596,1.329-0.721,2.091c0.794,0.068,1.623,0.501,2.396,0.068c0.665-0.305,0.811-1.115,1.313-1.597
			c0.396-0.438,0.991-0.111,1.457-0.022c0.701,0.035,1.207-0.468,1.805-0.701c0.412-0.27,0.753-0.739,1.186-1.008
			c0.827-0.398,1.982-0.184,2.845-0.021c0.685,0.186,1.407,0.076,1.999-0.198c0.559-0.341,1.08-0.772,1.711-0.917
			c0.557-0.288,0.826-0.916,1.06-1.439c0.18-0.486,0.649-0.864,0.614-1.422c-0.142-0.127-0.307-0.398-0.523-0.379
			c-0.268,0.379-0.465,0.775-0.773,1.133c-1.3,1.775-2.325,1.945-4.969,1.945c-1.963-0.073-3.726,0.52-5.078,2.051
			c-0.091,0.054-0.217,0.018-0.288-0.055c-0.053-0.215,0.124-0.572,0.218-0.736c1.204-1.708,3.078-2.104,5.057-2.142
			c1.084-0.071,2.108-0.252,3.024-0.719c1.028-0.524,1.731-1.334,2.162-2.341c0.234-1.139,0.323-2.36,0.611-3.438
			c0.036-0.11,0.307-0.192,0.397-0.155c0.104,0.02,0.324,0.115,0.324,0.243c-0.2,1.116-0.558,2.43-0.127,3.51
			c0.865,1.136,2.467,0.523,3.639,0.469c1.22-0.107,2.208-0.015,3.374,0.06c0.582-0.018,1.005,0.122,1.452-0.239
			c0.13-0.196,0.18-0.466,0.146-0.679c-0.041-0.327-0.311-0.519,0-0.789c0.088-0.075,0.355-0.025,0.428,0.063
			c0.158,0.45,0.23,0.935,0.521,1.334c0.576,0.736,1.422,1.313,2.215,1.728c0.754,0.521,1.388,1.259,1.441,2.177
			c0,0.469-0.437,0.79-0.795,1.009c-0.613,0.301-1.278,0.558-2.001,0.484c-0.95-0.471-1.204-1.473-1.835-2.216
			c-0.319-0.362-0.807-0.434-1.295-0.396c-0.521,0.056-1.042,0.074-1.511,0.237c-0.129,0.105-0.163,0.267-0.145,0.431
			c0.321,0.594,0.684,1.172,1.044,1.762c0.414,0.257,0.989-0.143,1.349,0.309c0.308,0.471,0.505,1.026,0.972,1.386
			c0.453,0.397,1.137,0.575,1.729,0.324c1.33-0.414,2.667-0.845,3.907-1.511h0.416c0.503-0.057,1.062-0.019,1.424-0.396
			c0.14-0.206,0.264-0.406,0.389-0.607c3.802,5.873,10.406,9.505,17.426,9.505c6.938,0,13.424-3.502,17.256-9.23
			c0.051,0.129,0.107,0.26,0.184,0.402c0.338,0.377,0.807,0.035,1.24,0.146c0.43,0.106,0.592,0.628,1.025,0.754
			c0.975,0.324,2.016,0.503,2.988,0.883c0.506,0.161,1.225,0.36,1.674-0.058c0.631-0.339,0.795-1.004,0.9-1.635
			c0.197-0.273,0.596-0.161,0.881-0.256c0.541-0.358,0.725-1.006,1.119-1.491l0.07-0.252c-0.059-0.162-0.201-0.251-0.342-0.307
			h-1.84c-0.846,0.107-0.92,1.044-1.279,1.622c-0.193,0.362-0.588,0.503-1.004,0.466c-0.865-0.233-1.926-0.355-2.324-1.294
			c-0.057-0.234-0.057-0.522,0.129-0.686c0.449-0.518,0.986-1.115,1.551-1.547c0.789-0.165,1.562-0.756,1.977-1.457
			c0.217-0.311,0.18-0.757,0.541-0.991c0.107-0.016,0.352-0.027,0.422,0.083c0.162,0.524-0.129,0.894-0.295,1.341
			c1.965,0.203,3.482-0.365,5.395-0.29c0.812,0,1.537,0.09,2.328,0.035c0.793-0.035,1.654-0.356,1.91-1.185
			c0.359-1.064-0.145-2.27-0.322-3.277l0.219-0.172c0.125-0.072,0.336,0.026,0.43,0.1c0.342,0.954,0.572,2.105,0.721,3.151
			c0.146,0.919,0.537,1.512,1.041,2.29c0.92,1.363,2.541,1.907,4.145,1.564c1.945-0.146,3.619,0.882,4.809,2.394v0.088
			c-0.037,0.073-0.107,0.159-0.199,0.142c-1.021-0.79-2.051-1.633-3.363-1.8c-1.33-0.24-2.521,0.452-3.908-0.105
			c-1.672-0.551-2.371-1.578-3.08-3.224h-0.146c-0.105,0.02-0.178,0.126-0.195,0.232l0.184,1.118c0.217,0.9,0.502,1.962,1.479,2.376
			c0.754,0.451,1.49,1.099,2.428,0.849c1.641-0.364,3.297,0.106,4.559,1.024c0.414,0.235,0.738,0.664,1.188,0.828
			c0.486,0.199,1.08,0.088,1.477-0.234c0.918-0.307,1.135,0.846,1.768,1.26c0.557,0.54,1.527,0.323,2.27,0.323l0.125-0.086
			c-0.094-0.743-0.289-1.317-0.576-1.966C107.414,30.796,106.963,29.802,106.422,29.227z M77.633,10.487
			c0.146,0.234-0.02,0.413-0.125,0.596c-0.738,0.7-1.641,1.419-2.182,2.267c-0.199,0.271-0.34,0.576-0.482,0.883
			c-0.02,0.035-0.07,0.051-0.129,0.035c-0.143-0.433,0.037-0.88,0.146-1.296c0.377-1.01,1.227-1.946,2.09-2.594
			C77.15,10.252,77.527,10.217,77.633,10.487z M41.314,11.636c0.115-0.104,0.31-0.127,0.455-0.071
			c0.287,0.198,0.469,0.503,0.629,0.791c0.341,0.796,0.341,1.854,0.11,2.704c-0.036,0.034-0.094,0.054-0.147,0.016
			c-0.142-0.739-0.305-1.493-0.592-2.197C41.604,12.468,41.065,12.127,41.314,11.636z M79.025,24.8l-1.104,1.621
			c-0.254,0.36-0.502,0.756-0.592,1.152c-0.096,0.449-0.035,0.881,0,1.312c-0.074,0.038-0.109-0.073-0.182-0.104
			c-0.289-0.594-0.615-1.354-0.311-2.052l1.393-2.142l0.049-0.164c-0.303-0.164-0.646-0.325-0.971-0.395
			c-0.16,0.07-0.273,0.231-0.381,0.375l-1.352,2.449c-0.088,0.289-0.178,0.506-0.105,0.806c0.051,0.268,0.125,0.526,0.223,0.77
			c-3.602,5.854-10.014,9.474-16.9,9.474c-6.865,0-13.329-3.636-16.914-9.491c0.04-0.076,0.083-0.146,0.122-0.224
			c0.309-0.417,0.165-1.045,0.039-1.495c-0.61-0.759-0.954-1.605-1.279-2.467c-0.303-0.087-0.575-0.272-0.918-0.252
			c-0.162,0.072-0.396,0.036-0.485,0.216L40.779,27c0.091,0.213,0.201,0.521,0.145,0.81c-0.195,0.595-0.503,1.167-0.989,1.601
			c-0.091,0.052-0.197,0.105-0.271-0.019c0.166-0.611,0.451-1.278,0.418-1.983l-1.389-2.502c-0.163-0.343-0.452-0.646-0.433-1.04
			c0-0.182,0.162-0.31,0.309-0.381c0.609-0.198,1.349-0.162,1.814-0.648c0.614-0.953,0.741-1.891,0.903-3.025
			c0.037-0.07,0.182-0.214,0.287-0.214c0.11-0.033,0.235,0.124,0.288,0.18c0.18,1.24-0.071,2.503-0.792,3.475
			c-0.036,0.128-0.089,0.286,0.055,0.376c0.685,0.219,1.401,0,1.98-0.306c0.739,0.016,1.42-0.159,2.089-0.269
			c0.071,0.036,0.143,0.11,0.143,0.181c-0.45,0.502-0.702,1.06-0.828,1.708c-0.539,0.56-1.317,1.042-1.37,1.854
			c0.09,0.4,0.434,0.022,0.669,0.055c0.104,0.019,0.179,0.109,0.179,0.217l-0.541,0.794c-0.289,0.465,0.055,1.007,0.055,1.456
			c0.125,0.36,0.557,0.538,0.934,0.538c0.813-0.037,1.53-0.342,2.254-0.595c0.793-0.338,1.783-0.321,2.643-0.175
			c0.848-0.057,1.481-0.615,2.107-1.172c0.346,0,0.65,0.234,0.886,0.489c0.972,1.043,2.232,1.491,3.654,1.454l0.127-0.07
			c0.09-0.09,0.055-0.252-0.057-0.326l-0.85-0.431c-0.592-0.379-1.334-0.881-1.527-1.547c-0.184-0.595-0.505-1.24-0.86-1.818
			c-0.133-0.287-0.418-0.522-0.54-0.811c0.031-0.037,0.067-0.088,0.122-0.073c0.936,0.326,1.493,1.245,1.929,2.072
			c0.682,0.956,1.676,1.764,2.971,1.551l0.107-0.093c0.055-0.07,0.035-0.162,0-0.218l-0.648-0.323
			c-1.078-0.628-1.514-1.815-2.18-2.753c-0.232-0.341-0.646-0.558-0.861-0.9c-0.773-2.105-1.438-4.215-1.64-6.624
			c-0.159-0.596-0.287-1.207-0.609-1.768c-0.975-1.584-2.235-3.025-3.461-4.482c-0.105-0.107-0.287-0.196-0.34-0.342l-4.267-3.547
			c-0.287-0.216-0.595-0.388-0.912-0.545c3.71-5.38,9.746-8.573,16.312-8.573c6.66,0,12.912,3.404,16.562,8.938
			c-2.607,2.157-5.496,3.773-7.84,6.338c-1.693,1.743-2.145,3.962-2.775,6.104c-0.896,3.241-1.273,6.805-4.533,8.799
			c-0.055,0.097-0.055,0.253,0.057,0.327c0.861,0.218,1.711-0.126,2.285-0.72c0.561-0.882,1.15-1.726,1.908-2.538l0.178-0.09
			c0.094,0.017,0.201,0.072,0.164,0.196c-0.215,0.724-0.861,1.245-1.08,1.965c-0.285,0.859-1.111,1.53-1.818,2.141l-0.018,0.104
			c0,0.092,0.092,0.183,0.182,0.201c1.586,0.073,2.719-1.062,3.777-2.126c0.107-0.107,0.254-0.085,0.396-0.052
			c0.471,0.361,0.902,0.901,1.516,1.026c0.648-0.089,1.332-0.182,2.016-0.125c0.953,0.284,1.873,0.684,2.826,1.006
			c0.486-0.017,0.848-0.483,1.098-0.881c0.199-0.47-0.088-0.937-0.051-1.384c0.232-0.146,0.502,0.036,0.756-0.038
			c0.107-0.07,0.197-0.196,0.197-0.324c-0.182-0.827-0.92-1.44-1.152-2.213c-0.357-0.992-1.527-1.589-1.748-2.645
			c0.059-0.075,0.146-0.186,0.234-0.108c0.773,0.553,1.461,1.296,2.412,1.436c0.723,0.076,1.461,0.147,2.182,0.094
			c0.105-0.038,0.195-0.163,0.164-0.286c-0.309-0.653-0.598-1.299-0.781-2.002c-0.25-0.885-0.43-2.108-0.143-3.079
			c0.057-0.072,0.289-0.209,0.396-0.172c0.145,0.034,0.326,0.209,0.342,0.335c0.107,1.528-0.053,2.934,0.865,4.14
			c0.396,0.632,1.082,0.758,1.566,1.245C79.111,24.097,79.148,24.512,79.025,24.8z M49.312,25.755c0.142,0,0.344-0.02,0.377,0.177
			c0.035,0.345,0.035,0.759-0.252,0.973c-0.34,0.107-0.722,0.144-1.099,0.125c-0.089-0.032-0.216-0.088-0.177-0.194
			C48.322,26.347,48.789,25.861,49.312,25.755z M49.004,19.544c0.307-0.31,0.233-1.209,0.92-0.92c0.467,0.251,0.556,0.758,0.9,1.098
			c0.591,0.667,0.988,1.405,0.794,2.323c-0.093,0.181-0.075,0.451-0.31,0.502c-0.106,0.036-0.197-0.032-0.197-0.143
			c-0.037-0.483-0.037-0.988-0.324-1.386c-0.323-0.34-0.665-0.935-1.186-0.935c-0.364,0.108-0.629,0.522-0.85,0.809
			c-0.018,0.036-0.069,0.036-0.107,0.02C48.447,20.405,48.846,19.973,49.004,19.544z M69.205,20.692
			c-0.34-0.015-0.535,0.273-0.807,0.418c-0.471,0.412-1.1,0.844-1.205,1.475c-0.096,0.233-0.057,0.554-0.252,0.684
			c-0.129,0.033-0.27-0.071-0.27-0.179c-0.074-0.829,0.193-1.621,0.809-2.179c0.594-0.488,1.01-1.153,1.496-1.712
			c0.27-0.053,0.465,0.145,0.574,0.345c0.324,0.412,0.561,0.861,0.752,1.347c0.039,0.107,0,0.219-0.029,0.328
			c-0.074,0.086-0.184,0.214-0.309,0.124C69.602,21.219,69.658,20.659,69.205,20.692z M69.91,27.266
			c-0.213,0.162-0.596,0.069-0.863,0.038c-0.324-0.181-0.396-0.561-0.432-0.919c0-0.089,0.02-0.182,0.104-0.256
			c0.379,0,0.762,0.095,1.01,0.399C69.838,26.761,70.035,27.011,69.91,27.266z"/>
		<path d="M80.75,27.428c-0.215,0.322-0.412,0.72-0.361,1.154c0.057,0.448,0.561,0.483,0.885,0.611
			c0.311,0.034,0.756,0.144,0.918-0.184c0.184-0.463,0.34-0.969,0.416-1.472c-0.039-0.144-0.182-0.202-0.328-0.165
			C81.793,27.466,81.236,27.358,80.75,27.428z"/>
	</g>
</g>
<rect x="5.625" y="64.001" width="107" height="1"/>
</svg>
