<?xml version="1.0" encoding="utf-8"?>
<!-- Generator: Adobe Illustrator 16.0.0, SVG Export Plug-In . SVG Version: 6.00 Build 0)  -->
<!DOCTYPE svg PUBLIC "-//W3C//DTD SVG 1.1//EN" "http://www.w3.org/Graphics/SVG/1.1/DTD/svg11.dtd">
<svg version="1.1" id="Layer_1" xmlns="http://www.w3.org/2000/svg" xmlns:xlink="http://www.w3.org/1999/xlink" x="0px" y="0px"
	 width="24.93px" height="20.26px" viewBox="0 0 24.93 20.26" enable-background="new 0 0 24.93 20.26" xml:space="preserve">
<g>
	<g>
		<path d="M24.243,0.374c-0.987,0.586-2.085,1.012-3.251,1.242C20.061,0.622,18.733,0,17.26,0c-2.823,0-5.114,2.291-5.114,5.116
			c0,0.401,0.046,0.79,0.132,1.166C8.026,6.067,4.257,4.032,1.734,0.937C1.295,1.691,1.041,2.571,1.041,3.509
			c0,1.774,0.904,3.339,2.277,4.256C2.48,7.739,1.69,7.509,1.001,7.125c0,0.021,0,0.044,0,0.065c0,2.477,1.764,4.546,4.104,5.015
			c-0.431,0.118-0.882,0.182-1.35,0.182c-0.33,0-0.648-0.032-0.961-0.093c0.651,2.031,2.538,3.51,4.777,3.553
			c-1.752,1.37-3.956,2.19-6.354,2.19c-0.412,0-0.819-0.023-1.219-0.074c2.264,1.453,4.953,2.298,7.84,2.298
			c9.407,0,14.552-7.792,14.552-14.551c0-0.222-0.002-0.443-0.013-0.663c0.999-0.72,1.867-1.622,2.551-2.647
			c-0.917,0.408-1.903,0.682-2.938,0.805C23.049,2.571,23.859,1.57,24.243,0.374z"/>
	</g>
</g>
</svg>
